<svg width="57" height="92" viewBox="0 0 57 92" fill="none" xmlns="http://www.w3.org/2000/svg">
<g filter="url(#filter0_d_2_7)">
<path d="M5.63636 15.4545H12.3636L28.1818 54.0909H28.7273L44.5455 15.4545H51.2727V62H46V26.6364H45.5455L31 62H25.9091L11.3636 26.6364H10.9091V62H5.63636V15.4545Z" fill="#14C1CC"/>
<path d="M5.63636 15.4545V14.4545H4.63636V15.4545H5.63636ZM12.3636 15.4545L13.2891 15.0757L13.0348 14.4545H12.3636V15.4545ZM28.1818 54.0909L27.2564 54.4698L27.5107 55.0909H28.1818V54.0909ZM28.7273 54.0909V55.0909H29.3984L29.6527 54.4698L28.7273 54.0909ZM44.5455 15.4545V14.4545H43.8743L43.62 15.0757L44.5455 15.4545ZM51.2727 15.4545H52.2727V14.4545H51.2727V15.4545ZM51.2727 62V63H52.2727V62H51.2727ZM46 62H45V63H46V62ZM46 26.6364H47V25.6364H46V26.6364ZM45.5455 26.6364V25.6364H44.8755L44.6206 26.256L45.5455 26.6364ZM31 62V63H31.67L31.9248 62.3804L31 62ZM25.9091 62L24.9843 62.3804L25.2391 63H25.9091V62ZM11.3636 26.6364L12.2885 26.256L12.0336 25.6364H11.3636V26.6364ZM10.9091 26.6364V25.6364H9.90909V26.6364H10.9091ZM10.9091 62V63H11.9091V62H10.9091ZM5.63636 62H4.63636V63H5.63636V62ZM5.63636 16.4545H12.3636V14.4545H5.63636V16.4545ZM11.4382 15.8334L27.2564 54.4698L29.1073 53.712L13.2891 15.0757L11.4382 15.8334ZM28.1818 55.0909H28.7273V53.0909H28.1818V55.0909ZM29.6527 54.4698L45.4709 15.8334L43.62 15.0757L27.8018 53.712L29.6527 54.4698ZM44.5455 16.4545H51.2727V14.4545H44.5455V16.4545ZM50.2727 15.4545V62H52.2727V15.4545H50.2727ZM51.2727 61H46V63H51.2727V61ZM47 62V26.6364H45V62H47ZM46 25.6364H45.5455V27.6364H46V25.6364ZM44.6206 26.256L30.0752 61.6196L31.9248 62.3804L46.4703 27.0168L44.6206 26.256ZM31 61H25.9091V63H31V61ZM26.8339 61.6196L12.2885 26.256L10.4388 27.0168L24.9843 62.3804L26.8339 61.6196ZM11.3636 25.6364H10.9091V27.6364H11.3636V25.6364ZM9.90909 26.6364V62H11.9091V26.6364H9.90909ZM10.9091 61H5.63636V63H10.9091V61ZM6.63636 62V15.4545H4.63636V62H6.63636Z" fill="black"/>
</g>
<g filter="url(#filter1_d_2_7)">
<path d="M5.63636 30.4545H12.3636L28.1818 69.0909H28.7273L44.5455 30.4545H51.2727V77H46V41.6364H45.5455L31 77H25.9091L11.3636 41.6364H10.9091V77H5.63636V30.4545Z" fill="#14C1CC"/>
<path d="M5.63636 30.4545V29.4545H4.63636V30.4545H5.63636ZM12.3636 30.4545L13.2891 30.0757L13.0348 29.4545H12.3636V30.4545ZM28.1818 69.0909L27.2564 69.4698L27.5107 70.0909H28.1818V69.0909ZM28.7273 69.0909V70.0909H29.3984L29.6527 69.4698L28.7273 69.0909ZM44.5455 30.4545V29.4545H43.8743L43.62 30.0757L44.5455 30.4545ZM51.2727 30.4545H52.2727V29.4545H51.2727V30.4545ZM51.2727 77V78H52.2727V77H51.2727ZM46 77H45V78H46V77ZM46 41.6364H47V40.6364H46V41.6364ZM45.5455 41.6364V40.6364H44.8755L44.6206 41.256L45.5455 41.6364ZM31 77V78H31.67L31.9248 77.3804L31 77ZM25.9091 77L24.9843 77.3804L25.2391 78H25.9091V77ZM11.3636 41.6364L12.2885 41.256L12.0336 40.6364H11.3636V41.6364ZM10.9091 41.6364V40.6364H9.90909V41.6364H10.9091ZM10.9091 77V78H11.9091V77H10.9091ZM5.63636 77H4.63636V78H5.63636V77ZM5.63636 31.4545H12.3636V29.4545H5.63636V31.4545ZM11.4382 30.8334L27.2564 69.4698L29.1073 68.712L13.2891 30.0757L11.4382 30.8334ZM28.1818 70.0909H28.7273V68.0909H28.1818V70.0909ZM29.6527 69.4698L45.4709 30.8334L43.62 30.0757L27.8018 68.712L29.6527 69.4698ZM44.5455 31.4545H51.2727V29.4545H44.5455V31.4545ZM50.2727 30.4545V77H52.2727V30.4545H50.2727ZM51.2727 76H46V78H51.2727V76ZM47 77V41.6364H45V77H47ZM46 40.6364H45.5455V42.6364H46V40.6364ZM44.6206 41.256L30.0752 76.6196L31.9248 77.3804L46.4703 42.0168L44.6206 41.256ZM31 76H25.9091V78H31V76ZM26.8339 76.6196L12.2885 41.256L10.4388 42.0168L24.9843 77.3804L26.8339 76.6196ZM11.3636 40.6364H10.9091V42.6364H11.3636V40.6364ZM9.90909 41.6364V77H11.9091V41.6364H9.90909ZM10.9091 76H5.63636V78H10.9091V76ZM6.63636 77V30.4545H4.63636V77H6.63636Z" fill="black"/>
</g>
<g filter="url(#filter2_d_2_7)">
<path d="M5.63636 15.4545H12.3636L28.1818 54.0909H28.7273L44.5455 15.4545H51.2727V62H46V26.6364H45.5455L31 62H25.9091L11.3636 26.6364H10.9091V62H5.63636V15.4545Z" fill="#14C1CC"/>
<path d="M5.63636 15.4545V14.4545H4.63636V15.4545H5.63636ZM12.3636 15.4545L13.2891 15.0757L13.0348 14.4545H12.3636V15.4545ZM28.1818 54.0909L27.2564 54.4698L27.5107 55.0909H28.1818V54.0909ZM28.7273 54.0909V55.0909H29.3984L29.6527 54.4698L28.7273 54.0909ZM44.5455 15.4545V14.4545H43.8743L43.62 15.0757L44.5455 15.4545ZM51.2727 15.4545H52.2727V14.4545H51.2727V15.4545ZM51.2727 62V63H52.2727V62H51.2727ZM46 62H45V63H46V62ZM46 26.6364H47V25.6364H46V26.6364ZM45.5455 26.6364V25.6364H44.8755L44.6206 26.256L45.5455 26.6364ZM31 62V63H31.67L31.9248 62.3804L31 62ZM25.9091 62L24.9843 62.3804L25.2391 63H25.9091V62ZM11.3636 26.6364L12.2885 26.256L12.0336 25.6364H11.3636V26.6364ZM10.9091 26.6364V25.6364H9.90909V26.6364H10.9091ZM10.9091 62V63H11.9091V62H10.9091ZM5.63636 62H4.63636V63H5.63636V62ZM5.63636 16.4545H12.3636V14.4545H5.63636V16.4545ZM11.4382 15.8334L27.2564 54.4698L29.1073 53.712L13.2891 15.0757L11.4382 15.8334ZM28.1818 55.0909H28.7273V53.0909H28.1818V55.0909ZM29.6527 54.4698L45.4709 15.8334L43.62 15.0757L27.8018 53.712L29.6527 54.4698ZM44.5455 16.4545H51.2727V14.4545H44.5455V16.4545ZM50.2727 15.4545V62H52.2727V15.4545H50.2727ZM51.2727 61H46V63H51.2727V61ZM47 62V26.6364H45V62H47ZM46 25.6364H45.5455V27.6364H46V25.6364ZM44.6206 26.256L30.0752 61.6196L31.9248 62.3804L46.4703 27.0168L44.6206 26.256ZM31 61H25.9091V63H31V61ZM26.8339 61.6196L12.2885 26.256L10.4388 27.0168L24.9843 62.3804L26.8339 61.6196ZM11.3636 25.6364H10.9091V27.6364H11.3636V25.6364ZM9.90909 26.6364V62H11.9091V26.6364H9.90909ZM10.9091 61H5.63636V63H10.9091V61ZM6.63636 62V15.4545H4.63636V62H6.63636Z" fill="black"/>
</g>
<defs>
<filter id="filter0_d_2_7" x="1.63637" y="15.4545" width="53.6364" height="54.5455" filterUnits="userSpaceOnUse" color-interpolation-filters="sRGB">
<feFlood flood-opacity="0" result="BackgroundImageFix"/>
<feColorMatrix in="SourceAlpha" type="matrix" values="0 0 0 0 0 0 0 0 0 0 0 0 0 0 0 0 0 0 127 0" result="hardAlpha"/>
<feOffset dy="4"/>
<feGaussianBlur stdDeviation="2"/>
<feComposite in2="hardAlpha" operator="out"/>
<feColorMatrix type="matrix" values="0 0 0 0 0 0 0 0 0 0 0 0 0 0 0 0 0 0 0.25 0"/>
<feBlend mode="normal" in2="BackgroundImageFix" result="effect1_dropShadow_2_7"/>
<feBlend mode="normal" in="SourceGraphic" in2="effect1_dropShadow_2_7" result="shape"/>
</filter>
<filter id="filter1_d_2_7" x="1.63637" y="30.4545" width="53.6364" height="54.5455" filterUnits="userSpaceOnUse" color-interpolation-filters="sRGB">
<feFlood flood-opacity="0" result="BackgroundImageFix"/>
<feColorMatrix in="SourceAlpha" type="matrix" values="0 0 0 0 0 0 0 0 0 0 0 0 0 0 0 0 0 0 127 0" result="hardAlpha"/>
<feOffset dy="4"/>
<feGaussianBlur stdDeviation="2"/>
<feComposite in2="hardAlpha" operator="out"/>
<feColorMatrix type="matrix" values="0 0 0 0 0 0 0 0 0 0 0 0 0 0 0 0 0 0 0.25 0"/>
<feBlend mode="normal" in2="BackgroundImageFix" result="effect1_dropShadow_2_7"/>
<feBlend mode="normal" in="SourceGraphic" in2="effect1_dropShadow_2_7" result="shape"/>
</filter>
<filter id="filter2_d_2_7" x="1.63637" y="15.4545" width="53.6364" height="54.5455" filterUnits="userSpaceOnUse" color-interpolation-filters="sRGB">
<feFlood flood-opacity="0" result="BackgroundImageFix"/>
<feColorMatrix in="SourceAlpha" type="matrix" values="0 0 0 0 0 0 0 0 0 0 0 0 0 0 0 0 0 0 127 0" result="hardAlpha"/>
<feOffset dy="4"/>
<feGaussianBlur stdDeviation="2"/>
<feComposite in2="hardAlpha" operator="out"/>
<feColorMatrix type="matrix" values="0 0 0 0 0 0 0 0 0 0 0 0 0 0 0 0 0 0 0.25 0"/>
<feBlend mode="normal" in2="BackgroundImageFix" result="effect1_dropShadow_2_7"/>
<feBlend mode="normal" in="SourceGraphic" in2="effect1_dropShadow_2_7" result="shape"/>
</filter>
</defs>
</svg>
